<?xml version="1.0" standalone="no"?><!DOCTYPE svg PUBLIC "-//W3C//DTD SVG 1.1//EN" "http://www.w3.org/Graphics/SVG/1.1/DTD/svg11.dtd"><svg t="1768727677270" class="icon" viewBox="0 0 1024 1024" version="1.1" xmlns="http://www.w3.org/2000/svg" p-id="16330" xmlns:xlink="http://www.w3.org/1999/xlink" width="200" height="200"><path d="M512 1023.38118C229.626475 1023.38118 0.61882 794.373525 0.61882 512 0.61882 229.611741 229.626475 0.61882 512 0.61882c282.373525 0 511.38118 228.992921 511.38118 511.366446 0 282.388259-229.007655 511.395914-511.38118 511.395914z" fill="#D7D7D8" p-id="16331"></path><path d="M509.509986 207.820432h21.909179v118.062043h-21.909179zM573.955683 247.572259h21.90918v118.062043h-21.90918z" fill="#C32D2C" p-id="16332"></path><path d="M633.480288 341.014101h-134.342907c-2.711022 0-4.90636-2.195338-4.906359-4.90636v-20.450532c0-2.711022 2.195338-4.90636 4.906359-4.90636h134.342907c2.711022 0 4.90636 2.195338 4.906359 4.90636v20.450532c0 2.711022-2.195338 4.90636-4.906359 4.90636z" fill="#E74A48" p-id="16333"></path><path d="M494.231022 337.271712h144.155625v219.975828h-144.155625zM356.602475 417.394187h-70.692835c-12.243799 0-22.174388 9.93059-22.174388 22.174389v88.005064c0 12.243799 9.93059 22.174388 22.174388 22.174389h70.692835c12.243799 0 22.174388-9.93059 22.174388-22.174389v-88.005064c0-12.243799-9.93059-22.174388-22.174388-22.174389z" fill="#FFD599" p-id="16334"></path><path d="M680.142273 535.14682H219.504345a10.269468 10.269468 0 0 0-10.269467 10.269468v128.817726a10.269468 10.269468 0 0 0 10.269467 10.269468h460.637928a10.269468 10.269468 0 0 0 10.269468-10.269468v-128.817726a10.269468 10.269468 0 0 0-10.269468-10.269468z" fill="#E74A48" p-id="16335"></path><path d="M249.458187 574.456633h44.982331v35.31695h-44.982331z" fill="#96D7FF" p-id="16336"></path><path d="M294.440518 574.456633v35.31695h-44.982331v-35.31695h44.982331m2.16587-2.16587H247.262849v39.678158H296.606388v-39.678158z" fill="#FFFFFF" p-id="16337"></path><path d="M290.712863 550.396317l-6.497611-8.162533-40.901065 69.853007 6.512345 8.162533zM300.55505 562.728518l-6.497611-8.162532-40.901065 69.853007 6.512345 8.162532z" fill="#B5E3FF" p-id="16338"></path><path d="M345.714187 574.456633h44.982331v35.31695h-44.982331z" fill="#96D7FF" p-id="16339"></path><path d="M390.696518 574.456633v35.31695h-44.982331v-35.31695h44.982331m2.180604-2.16587H343.533583v39.678158H392.877122v-39.678158z" fill="#FFFFFF" p-id="16340"></path><path d="M386.983597 550.396317l-6.512345-8.162533-40.886331 69.853007 6.497611 8.162533zM396.825784 562.728518l-6.512345-8.162532-40.886331 69.853007 6.497611 8.162532z" fill="#B5E3FF" p-id="16341"></path><path d="M441.984921 574.456633h44.982331v35.31695h-44.982331z" fill="#96D7FF" p-id="16342"></path><path d="M486.952518 574.456633v35.31695h-44.982331v-35.31695h44.982331m2.180604-2.16587H439.789583v39.678158H489.133122v-39.678158z" fill="#FFFFFF" p-id="16343"></path><path d="M483.239597 550.396317l-6.512345-8.162533-40.886331 69.853007 6.512345 8.162533zM493.081784 562.728518l-6.512345-8.162532-40.886331 69.853007 6.512345 8.162532z" fill="#B5E3FF" p-id="16344"></path><path d="M538.240921 574.456633h44.982331v35.31695h-44.982331z" fill="#96D7FF" p-id="16345"></path><path d="M583.223252 574.456633v35.31695h-44.982331v-35.31695h44.982331m2.16587-2.16587H536.045583v39.678158H585.389122v-39.678158z" fill="#FFFFFF" p-id="16346"></path><path d="M579.495597 550.396317l-6.497611-8.162533-40.901065 69.853007 6.512345 8.162533zM589.337784 562.728518l-6.497611-8.162532-40.901065 69.853007 6.512345 8.162532z" fill="#B5E3FF" p-id="16347"></path><path d="M762.725295 787.036086l-12.951022 29.143482H324.276489c-33.254216 0-64.003683-10.814619-88.87436-29.143482h527.323166z" fill="#A42124" p-id="16348"></path><path d="M849.875799 605.39764l-87.150504 181.638446h-527.323166c-37.158676-25.312691-61.277928-66.095885-61.277928-112.094849h346.80449l96.550676-69.543597h232.396432z" fill="#C32D2C" p-id="16349"></path><path d="M717.949237 774.497612h-60.349697l23.515165-55.914821-34.919137 55.914821h-60.511769l23.515165-55.914821-34.904403 55.914821H513.768058l23.515165-55.914821-34.904403 55.914821H441.86705l23.515166-55.914821-34.757065 55.67908-26.167252-20.332662 20.391597 33.254215h300.481382l47.236604-114.894273-54.618245 102.208461z" fill="#DA4C3C" p-id="16350"></path><path d="M394.114763 722.457784h-159.272518a9.444374 9.444374 0 0 1 0-18.888748h159.272518a9.444374 9.444374 0 0 1 0 18.888748z" fill="#F7CF6F" p-id="16351"></path></svg>